<?xml version="1.0" encoding="UTF-8" standalone="no"?>
<svg
   xmlns:dc="http://purl.org/dc/elements/1.1/"
   xmlns:cc="http://creativecommons.org/ns#"
   xmlns:rdf="http://www.w3.org/1999/02/22-rdf-syntax-ns#"
   xmlns:svg="http://www.w3.org/2000/svg"
   xmlns="http://www.w3.org/2000/svg"
   xmlns:sodipodi="http://sodipodi.sourceforge.net/DTD/sodipodi-0.dtd"
   xmlns:inkscape="http://www.inkscape.org/namespaces/inkscape"
   width="210mm"
   height="297mm"
   viewBox="0 0 210 297"
   version="1.1"
   id="svg2730"
   inkscape:version="1.0beta2 (2b71d25, 2019-12-03)"
   sodipodi:docname="car_outline.svg">
  <defs
     id="defs2724">
    <linearGradient
       inkscape:collect="always"
       x1="-776.4"
       y1="619.61"
       gradientTransform="matrix(0.4413,0,0,0.46075,553.65,508.81)"
       x2="-774.99"
       gradientUnits="userSpaceOnUse"
       y2="430.11"
       id="linearGradient1360">
      <stop
         offset="0"
         style="stop-color:#c9c9c9"
         id="stop5198" />
      <stop
         offset="1"
         style="stop-color:#c9c9c9;stop-opacity:0"
         id="stop5200" />
    </linearGradient>
    <linearGradient
       inkscape:collect="always"
       x1="-1027.2"
       y1="350.91"
       gradientTransform="matrix(0.4413,0,0,0.46075,553.65,508.81)"
       x2="-490.02"
       gradientUnits="userSpaceOnUse"
       y2="295.76"
       id="linearGradient1363">
      <stop
         offset="0"
         style="stop-color:#bbbbbb"
         id="stop9621" />
      <stop
         offset="1"
         style="stop-color:#ffffff"
         id="stop9623" />
    </linearGradient>
  </defs>
  <sodipodi:namedview
     id="base"
     pagecolor="#ffffff"
     bordercolor="#666666"
     borderopacity="1.0"
     inkscape:pageopacity="0.0"
     inkscape:pageshadow="2"
     inkscape:zoom="0.35"
     inkscape:cx="400"
     inkscape:cy="560"
     inkscape:document-units="mm"
     inkscape:current-layer="layer1"
     inkscape:document-rotation="0"
     showgrid="false"
     inkscape:window-width="1600"
     inkscape:window-height="1209"
     inkscape:window-x="0"
     inkscape:window-y="23"
     inkscape:window-maximized="0" />
  <metadata
     id="metadata2727">
    <rdf:RDF>
      <cc:Work
         rdf:about="">
        <dc:format>image/svg+xml</dc:format>
        <dc:type
           rdf:resource="http://purl.org/dc/dcmitype/StillImage" />
        <dc:title></dc:title>
      </cc:Work>
    </rdf:RDF>
  </metadata>
  <g
     inkscape:label="Layer 1"
     inkscape:groupmode="layer"
     id="layer1">
    <g
       transform="matrix(0,-0.41358926,0.41358926,0,-10.54868,306.27673)"
       inkscape:label="Layer 1"
       id="layer1-5">
      <path
         d="m 310.41,-56.083 c -0.06,0.079 -0.13,0.149 -0.19,0.229 0.06,-0.078 0.13,-0.152 0.19,-0.229 z"
         inkscape:connector-curvature="0"
         style="fill:#0a0a0a"
         id="path12075" />
      <path
         d="m 310.22,-55.816 c -0.02,0.022 -0.06,0.054 -0.08,0.076 0.02,-0.028 0.06,-0.048 0.08,-0.076 z"
         inkscape:connector-curvature="0"
         style="fill:#0a0a0a"
         id="path12073" />
      <path
         d="m 309.15,-54.065 c -0.01,0.02 0.01,0.056 0,0.076 0.01,-0.024 0.03,-0.051 0.04,-0.076 0,0.009 -0.03,-0.008 -0.04,0 z"
         inkscape:connector-curvature="0"
         style="fill:#0a0a0a"
         id="path12067" />
      <path
         d="m 309.12,-53.912 c -0.04,0.077 -0.05,0.149 -0.08,0.228 0.03,-0.075 0.04,-0.154 0.08,-0.228 z"
         inkscape:connector-curvature="0"
         style="fill:#0a0a0a"
         id="path12065" />
      <path
         d="m 308.96,-53.532 c -0.02,0.056 -0.02,0.097 -0.03,0.153 0.01,-0.052 0.01,-0.102 0.03,-0.153 z"
         inkscape:connector-curvature="0"
         style="fill:#0a0a0a"
         id="path12063" />
      <path
         d="m 308.89,-53.303 c -0.02,0.045 -0.03,0.106 -0.04,0.152 0.02,-0.052 0.02,-0.101 0.04,-0.152 z"
         inkscape:connector-curvature="0"
         style="fill:#0a0a0a"
         id="path12061" />
      <path
         d="m 308.81,-53.075 c -0.02,0.06 -0.02,0.092 -0.04,0.152 0.02,-0.052 0.02,-0.1 0.04,-0.152 z"
         inkscape:connector-curvature="0"
         style="fill:#0a0a0a"
         id="path12059" />
      <path
         d="m 308.62,-52.351 c -0.01,0.061 -0.03,0.09 -0.04,0.152 0.01,-0.054 0.03,-0.099 0.04,-0.152 z"
         inkscape:connector-curvature="0"
         style="fill:#0a0a0a"
         id="path12055" />
      <path
         d="m 309.34,-46.488 c 0.02,0.028 0.03,0.048 0.04,0.076 -0.01,-0.025 -0.02,-0.052 -0.04,-0.076 z"
         inkscape:connector-curvature="0"
         style="fill:#0a0a0a"
         id="path12043" />
      <path
         d="m 309.5,-46.184 c 0.01,0.028 0.02,0.049 0.03,0.076 -0.01,-0.024 -0.02,-0.052 -0.03,-0.076 z"
         inkscape:connector-curvature="0"
         style="fill:#0a0a0a"
         id="path12041" />
      <path
         d="m 309.61,-45.993 c 0.04,0.075 0.07,0.154 0.11,0.228 -0.04,-0.07 -0.07,-0.157 -0.11,-0.228 z"
         inkscape:connector-curvature="0"
         style="fill:#0a0a0a"
         id="path12039" />
      <path
         d="m 82.143,696.88 25.277,-52.78 9.98,-12.38 25.28,-4.23 50.24,-2.93 65.53,1.3 42.75,5.54 8.11,3.26 20.6,36.81 13.73,30.63 -39.01,-7.17 -16.85,-1.3 -19.66,-1.31 -25.27,-1.3 -31.52,-0.33 -32.76,0.98 -28.71,0.65 -24.03,2.28 -42.751,7.17"
         inkscape:connector-curvature="0"
         style="display:none;fill:url(#linearGradient1363);fill-rule:evenodd;stroke:#000000;stroke-width:0.45092px"
         id="path8734" />
      <path
         d="m 121.15,717.41 14.98,65.81 3.74,7.82 7.49,3.26 h 27.46 l 37.45,0.65 64.9,-1.3 5,-1.96 4.99,-4.56 2.5,-11.73 12.48,-59.29 -23.09,-0.66 -6.25,23.46 -5.61,11.08 -112.34,-1.3 -4.99,-14.99 -4.37,-18.25 z"
         inkscape:connector-curvature="0"
         style="display:none;fill:url(#linearGradient1360);fill-rule:evenodd;stroke:#000000;stroke-width:0.45092px"
         id="path5172" />
      <g
         transform="matrix(-1.1526,0,0,1.1526,829.96,-25.852)"
         inkscape:export-filename="C:\Documents and Settings\064557\My Documents\Explorer\g7637.png"
         inkscape:export-xdpi="300"
         inkscape:export-ydpi="300"
         id="g7636">
        <path
           d="m 598.21,65.277 -162.53,0.038 c -7.38,-0.051 -14.53,2.247 -21.13,6.739 -5.73,3.898 -5.9,3.924 -29.2,4.949 -39.44,1.735 -44.1,3.935 -56.88,12.107 -3.61,2.312 -49,33.99 -61.68,41.31 -6.88,3.97 -36.13,6.51 -43.74,7.73 -4.23,0.67 -15.76,1.86 -25.62,2.66 -58.32,4.74 -86.63,15.84 -96.4,24.52 -4.865,4.32 -12.79,14.23 -16.754,40.47 -3.658,4.31 -2.764,3.63 -2.817,17.25 -0.05,12.86 3.02,14.6 11.117,16.63 3.31,0.84 4.811,0.33 5.711,1.11 0.029,0.03 0.086,0.08 0.114,0.11 0.307,0.35 0.574,0.88 0.8,1.75 l 1.029,6.44 19.3,0.38 15,0.23 v 0.53 c 0,29.36 23.83,53.19 53.19,53.19 25.8,0 47.32,-18.41 52.16,-42.8 h 268.63 c 4.66,24.61 26.28,43.25 52.24,43.25 29.36,0 53.22,-23.83 53.22,-53.18 v -0.5 l 8.91,-0.68 c 6.25,-0.47 20.89,-1.25 32.51,-1.75 20.5,-0.88 21.22,-1.03 24.94,-4.34 2.12,-1.88 5.58,-3.56 7.69,-3.77 5.25,-0.53 6.53,-1.88 8.19,-8.46 1.97,-7.84 1.85,-16.28 -0.15,-17.93 -0.01,0 -0.04,-0.03 -0.04,-0.04 -0.06,-0.04 -0.13,-0.08 -0.19,-0.11 -0.02,-0.01 -0.07,-0.03 -0.08,-0.04 -0.05,-0.02 -0.14,-0.05 -0.19,-0.07 -0.03,-0.02 -0.09,-0.06 -0.11,-0.08 -0.05,-0.03 -0.14,-0.07 -0.19,-0.11 l -0.04,-0.04 -0.04,-0.04 -0.15,-0.15 c -0.86,-0.98 -1.22,-3.17 -1.22,-7.2 0,-7.18 -2.4,-9.27 -8.8,-13.02 -0.1,-0.06 -0.21,-0.16 -0.3,-0.27 -0.04,-0.05 -0.11,-0.15 -0.15,-0.22 -0.17,-0.34 -0.23,-0.78 -0.12,-1.18 l 0.04,-0.12 c 0.06,-0.14 0.16,-0.3 0.27,-0.42 0.01,0 0.03,-0.03 0.04,-0.04 0.01,0 0.02,-0.02 0.03,-0.03 2.84,-2.5 0.75,-28.91 -2.43,-38.99 -1.45,-4.58 -8.85,-23.72 -10.43,-27.14 -1.72,-3.72 -6.59,-11.87 -10.82,-18.16 -4.22,-6.3 -8.57,-12.97 -9.63,-14.815 -3.31,-5.772 -7.81,-11.276 -9.52,-11.612 h -0.15 c -1.6,-2.132 -9.42,-3.802 -14.47,-3.807 -4.16,-0.006 -6.59,-0.892 -9.59,-3.426 -5.86,-4.939 -11.33,-6.853 -19.57,-6.853 z m -5.14,2.36 c 0.01,0.013 0.03,0.063 0.04,0.076 0.01,0.014 0.03,0.063 0.04,0.077 0.01,0.01 0.03,0.032 0.04,0.038 0,-0.001 0.03,0 0.03,0 l 13.48,4.873 c 0,0 -170.85,1.766 -172.28,1.218 -0.01,-0.664 1.59,-4.552 3.28,-5.977 z m -164.97,5.14 c 0.07,-0.006 0.13,0.006 0.2,0 0,-0.001 0.03,0 0.03,0 h 0.12 c 0.01,0 0.03,0.001 0.04,0 h 0.22 c 0.11,-0.003 0.25,0.002 0.35,0 h 0.03 c 0.05,-0.001 0.11,0 0.16,0 h 0.04 c 0.04,-0.001 0.11,0 0.15,0 h 0.04 c 0.04,-0.001 0.11,0 0.15,0 h 0.45 c 0.05,0 0.11,0.002 0.16,0 h 0.19 c 0.01,0.006 0.06,0.031 0.07,0.038 0.02,0.006 0.07,0.031 0.08,0.038 0.01,0.007 0.03,0.031 0.04,0.038 0,0.006 0.03,0.032 0.04,0.038 0,0.007 0.03,0.031 0.03,0.038 0.02,0.021 0.06,0.05 0.08,0.076 0.01,0.014 0.03,0.064 0.04,0.077 0.19,0.372 0.2,0.968 0,1.332 -0.01,0.013 -0.03,0.063 -0.04,0.076 -0.01,0.01 -0.03,0.034 -0.04,0.038 0,0.006 -0.03,0.033 -0.04,0.038 -0.02,0.02 -0.09,0.06 -0.11,0.077 0,0.003 -0.03,0.033 -0.04,0.038 -0.01,0.007 -0.05,0.028 -0.07,0.038 -2.09,0.8 -11.72,1.005 -13.1,0.419 h -0.04 c 0,-0.006 -0.03,-0.034 -0.04,-0.039 h -0.04 c 0,-0.005 -0.03,-0.035 -0.03,-0.038 v -0.114 h 0.03 v -0.038 h 0.04 c 0.01,-0.003 0.04,-0.036 0.04,-0.038 0.03,-0.018 0.08,-0.058 0.11,-0.076 1.27,-0.682 6.7,-1.687 10.66,-2.056 z m 29.74,6.967 c 0.36,-0.003 0.71,0.002 1.07,0 1.43,-0.008 2.84,0.001 4.26,0 32.82,-0.011 59.63,0.741 61.75,1.599 0.02,0.008 0.07,0.031 0.08,0.038 l 18.31,81.249 1.07,22.69 -3.85,1.03 c -1.26,0.72 -2.87,1.53 -4.95,2.43 -10.53,4.59 -19.71,12.75 -24.44,21.78 -1.74,3.31 -8.24,14.46 -8.64,32.86 -1.35,0.3 -6.83,0.38 -9.42,0.38 -0.2,0.86 -0.31,4.9 -0.3,5.34 h -81.24 l 1.79,-101.86 c 63.6,-0.99 102.74,-2.86 105.2,-3.16 4.58,-0.55 7.66,-5.34 5.97,-12.6 0,-0.01 -10.28,-45.555 -10.66,-46.979 v -0.038 l -86.65,-1.37 -38.57,1.789 c -33.36,1.405 -43.67,5.179 -71.3,26.078 -1.34,1.01 -2.36,1.83 -3.16,2.48 h -0.04 l -0.65,0.3 -13.17,10.13 c -0.02,0.01 -0.07,0.06 -0.08,0.07 h -0.04 c -1.65,0.87 -3.37,2.54 -6.43,5.6 -2.21,2.21 -3.66,3.68 -4,4.15 -0.01,0.01 -0.03,0.06 -0.04,0.08 v 0.07 h 0.04 c 0.1,-0.04 0.37,-0.24 0.8,-0.61 l 3.43,-2.97 -0.76,2.86 c -0.41,1.55 -1.48,3.1 -2.44,3.46 -0.09,0.04 -0.22,0.13 -0.31,0.19 -0.81,0.65 -1.47,2.56 -1.48,4.53 -0.01,1.4 -0.07,2.24 -0.23,2.63 -0.01,0.02 -0.03,0.07 -0.04,0.08 v 0.04 l -0.03,0.03 -0.04,0.04 h -0.04 v 0.04 h -0.19 v -0.04 h -0.08 l -0.04,-0.04 c -0.15,-0.12 -0.35,-0.35 -0.57,-0.68 -0.23,-0.37 -0.46,-0.68 -0.64,-0.84 -0.04,-0.02 -0.09,-0.06 -0.12,-0.08 0,0 -0.03,-0.03 -0.04,-0.03 -0.01,-0.01 -0.06,-0.03 -0.07,-0.04 h -0.12 c -0.39,-0.61 -1.27,-3.13 3.54,-9.56 -6.07,6.88 -5.07,10.6 -2.28,12.64 l 0.04,0.04 h 0.04 c 0.38,0.39 0.79,0.77 1.25,1.1 2.63,1.94 9.11,2.05 74.62,1.26 15.71,-0.19 33.01,-0.39 46.87,-0.61 l -2.06,101.82 H 268.07 v -91.35 l 5.46,-18.69 v -0.04 l 1.94,-5.56 c 1.13,-1.13 45.18,-34.343 67.81,-46.37 9.91,-5.264 61.9,-7.139 111.28,-7.348 1.1,-0.004 2.2,-0.027 3.28,-0.038 z m 166.83,0.914 c 1,-0.005 1.97,0.004 2.89,0 0.96,-0.004 1.85,0.003 2.71,0 1.83,-0.006 3.46,0.001 4.83,0 2.38,-0.002 3.97,0.021 4.65,0.038 v 0.038 c -0.02,0.013 -0.03,0.063 -0.04,0.076 h 0.08 c 2.44,2.132 28.52,43.29 32.05,57.53 -1.67,-0.48 -2.03,-0.13 -3.65,-0.23 -2.83,-13 -21.41,-41.326 -31.79,-56.005 -0.59,0.18 -1.22,0.291 -1.83,0.304 -25.34,0.532 -88.86,0.529 -88.86,0.533 -0.01,0.01 -0.03,0.028 -0.04,0.038 -1.17,1.305 -0.3,4.648 2.06,11.422 6.6,18.998 15.74,41.458 17.97,44.198 l 2.36,2.9 c 0,0 108.38,-0.12 108.39,-0.12 v 0.12 c 0.27,1.13 3.18,7.03 3.65,10.2 -3.59,-0.91 -13.18,-1.01 -16.82,-0.15 -9.67,2.28 -8.82,37.18 -0.23,39.25 l -4.46,1.9 c -2.93,16.69 -3,36.91 1.07,51.71 -4.16,0.66 -40.42,1.56 -40.43,1.56 v -0.04 l -0.04,-0.04 v -0.04 c -0.01,-0.01 -0.04,-0.03 -0.04,-0.04 1.27,-32.79 -23.32,-69.77 -73.25,-61.18 l -0.88,-22.35 -18.16,-80.899 c 0.01,0 66.81,-0.578 97.81,-0.723 z m 11.73,1.447 c 0.01,-0.007 0.06,-0.032 0.07,-0.038 0.13,-0.049 0.26,-0.107 0.38,-0.153 -0.18,0.02 -0.37,0.033 -0.57,0 0.05,0.06 0.07,0.13 0.12,0.191 z m 1.22,-0.419 v 0.038 c 0,-0.007 0.03,-0.031 0.03,-0.038 z m -90.16,2.817 h 87.26 l 7.73,10.584 c 7.21,9.833 23.46,44.723 23.45,44.733 -1.48,0.98 -83.2,0.08 -86.73,0.42 -9.96,0.97 -12.59,-0.74 -16.52,-10.89 -6.06,-15.64 -13.68,-37.285 -14.39,-40.849 z m -114.37,0.571 c 0.06,-0.006 0.12,0.003 0.19,0 0.2,-0.008 0.47,0.003 0.8,0 9.89,-0.073 75.87,0.349 78.43,1.219 v 0.038 c 0,-0.001 0.03,0 0.04,0 0.54,1.426 10.82,44.739 11.08,45.949 1.17,5.54 -2.78,9.5 -4.91,9.56 l -92.94,2.66 3.12,-56.951 c 0.53,-1.62 1.54,-1.957 3.96,-2.399 0.01,-0.008 0.04,-0.034 0.04,-0.038 0.04,-0.003 0.1,-0.028 0.19,-0.038 z m -6.32,0.076 c 0.05,-0.004 0.08,0.005 0.12,0 h 0.03 c 0.01,10e-4 0.04,0 0.04,0 H 427 c 0.01,-0.003 -3.39,59.13 -3.39,59.13 -1.56,-0.27 -9.41,0.21 -9.9,0.22 0.18,-1.89 4.27,-47.931 5.26,-59.045 0,-0.001 6.43,-0.165 7.8,-0.305 z m -13.02,0.343 c 0.44,0.054 3.64,-0.016 3.85,0 -1.17,10.546 -6.55,59.007 -6.55,59.007 l -3.69,0.31 z m -7.84,0.152 c 0.1,-0.003 0.2,0.002 0.3,0 0.41,-0.008 0.79,0.001 1.15,0 3.09,-0.005 4.42,0.095 4.6,0.115 l -6.93,58.9 c -1.18,2.33 -89,0.01 -91.41,-0.35 h -0.04 l -0.03,-0.03 -0.08,-0.08 c 0,0 -0.57,-2.11 -0.34,-4.99 0.24,-3.02 -0.05,-7.39 -0.65,-9.71 l -1.1,-4.22 -3.47,3.27 c -1.52,1.41 -2.52,2.27 -3.01,2.52 h -0.03 c -0.01,0 -0.07,0.03 -0.08,0.03 0,0.01 -0.03,0.03 -0.04,0.04 h -0.07 c -0.01,0 -0.04,-0.03 -0.04,-0.04 -0.01,0 -0.04,-0.03 -0.04,-0.03 0,-0.01 -0.03,-0.04 -0.04,-0.04 v -0.23 c 0.06,-0.51 0.41,-1.58 1.03,-3.2 0.68,-1.78 2.54,-3.45 4.19,-3.77 0.19,-0.04 0.35,-0.08 0.45,-0.11 h 0.04 c 0.02,-0.01 0.07,-0.04 0.08,-0.04 0,0 0.03,-0.04 0.04,-0.04 0,0 0.03,-0.03 0.03,-0.04 v -0.07 c 0,-0.01 -0.03,-0.04 -0.03,-0.04 h -0.08 c -0.41,-0.17 -1.74,-0.32 -3.77,-0.38 -1.76,-0.05 -3.1,-0.05 -4.23,0.15 l 12,-9.14 v -0.03 l 0.11,-0.04 0.04,-0.04 0.04,-0.04 c 0.01,-0.01 0.06,-0.03 0.07,-0.04 2.03,-1.29 5.23,-3.48 9.26,-6.39 13.48,-9.765 26.72,-16.414 37.12,-18.659 4.47,-0.965 16.59,-2.149 26.91,-2.627 7.77,-0.359 13.29,-0.52 17.06,-0.571 0.34,-0.004 0.67,-0.027 0.99,-0.038 z M 271.17,137.19 h 0.04 c 0,0 0.03,0.01 0.04,0 h 0.04 c 0,0 0.03,0.01 0.03,0 h 0.23 c 0.15,-0.01 0.28,-0.01 0.38,0 h 0.04 c 0.03,0.01 0.09,0.03 0.12,0.04 h 0.03 l 0.04,0.04 v 0.04 l -5.19,20.48 v 91.53 c 0,0 -14.65,-0.13 -16.13,0.19 h -0.04 c -5.46,-41.77 -26.16,-65.05 -57.83,-67.2 -25.01,-1.7 -45.81,9.99 -56.04,26.27 -6.27,9.98 -9.72,24.54 -8.79,30.61 l -8.27,-0.15 c 0,0 2.82,-18.6 -3.73,-26.92 -6.75,-8.58 -16.276,-6.29 -29.046,-6.51 l 4.188,-17.51 c 1.678,5.07 10.858,4.23 11.688,3.36 0.38,2.48 20.23,0.82 21.68,-0.61 h 0.03 c 2.33,-2.46 7.16,-10.05 8.11,-14.25 0.48,-2.1 0.76,-4.09 0.84,-5.67 0.04,-0.79 0.04,-5.55 -0.04,-6.11 -0.07,-0.57 -0.18,-1.05 -0.61,-1.41 -0.38,-0.33 -0.85,-0.46 -1.48,-0.61 -0.63,-0.14 -1.37,-0.25 -2.25,-0.34 -1.74,-0.18 -3.91,-0.27 -6.05,-0.27 -2.14,0 -0.86,0.12 -2.56,0.31 -0.86,0.09 -1.82,0.41 -2.21,0.34 -0.08,-0.01 0.05,-1.51 0.64,-1.96 2.78,-1.57 6.5,-2.5 11.62,-4.04 10.58,-3.18 35.5,-6.6 84.33,-11.5 25.18,-2.52 48.17,-5.4 51.09,-6.43 2.53,-0.89 4.13,-1.52 5.06,-1.72 z m 397.13,14.78 c 0.08,-0.01 0.15,0 0.23,0 0.08,-0.01 0.15,0 0.23,0 3.71,-0.12 8.21,0.43 11.88,1.41 0.02,0.01 0.06,0.06 0.07,0.07 2.42,2.44 3.04,13.28 3.92,21.28 -8.32,0.48 -18.17,0.21 -26.49,0.08 -1.14,-7.19 0.81,-18.48 4.64,-21.59 1.21,-0.72 3.18,-1.14 5.52,-1.25 z m 0,0.87 c -1.94,0.13 -3.56,0.5 -4.49,0.92 l 14.66,0.03 c -2.55,-0.54 -5.36,-0.89 -7.92,-0.95 -0.49,-0.01 -0.99,-0.01 -1.45,0 -0.14,0.01 -0.28,0 -0.42,0 h -0.19 c -0.06,0.01 -0.13,0 -0.19,0 z m -5.67,2.13 c -0.11,0.16 -0.24,0.33 -0.34,0.5 l 18.35,0.04 c -0.07,-0.19 -0.16,-0.35 -0.23,-0.5 z m -0.99,1.72 c -0.08,0.16 -0.15,0.32 -0.23,0.49 l 19.76,0.08 c -0.04,-0.18 -0.11,-0.37 -0.15,-0.53 z m -0.69,1.71 c -0.06,0.18 -0.13,0.35 -0.19,0.53 l 20.75,0.08 c -0.03,-0.18 -0.04,-0.36 -0.07,-0.53 z m -0.61,1.75 c -0.04,0.16 -0.07,0.33 -0.11,0.5 l 21.63,0.07 c -0.03,-0.17 -0.09,-0.33 -0.12,-0.49 z m -0.38,1.72 c -0.03,0.15 -0.08,0.29 -0.11,0.45 v 0.08 l 22.23,0.07 c -0.02,-0.17 -0.05,-0.35 -0.07,-0.53 z M 113.4,163.5 c 1.2,-0.06 2.02,0.02 2.51,0.31 0.09,0.05 0.2,0.12 0.27,0.19 0.03,0.02 0.06,0.05 0.08,0.07 0,0.01 0.03,0.04 0.03,0.04 0.01,0.01 0.04,0.06 0.04,0.08 0.26,0.42 0.34,1.08 0.31,1.98 -0.03,0.9 -0.04,1.71 0,2.24 v 0.04 c -0.01,0.01 0,0.03 0,0.04 -0.41,1.15 -0.89,2.27 -1.41,3.43 v 0.03 l -0.31,0.31 -3.5,5.75 c -4.45,7.28 -7.59,9.91 -7.99,10.05 -0.03,0.01 -7.708,4.46 -9.179,-1.68 -0.583,-2.43 3.065,-10.59 5.789,-14.24 0.69,-0.92 1.15,-1.51 1.37,-1.67 h 0.04 c 0,-0.01 0.03,-0.04 0.03,-0.04 0.01,0.01 0.04,0.03 0.04,0.04 0.01,0 0.04,0.03 0.04,0.04 0,0 -0.16,1.01 -0.42,2.05 -0.2,0.81 -0.29,1.45 -0.19,1.87 0.01,0 0.04,0.03 0.04,0.04 0.33,0.19 2.39,0.96 5.03,0.95 1.78,-0.01 5.05,0.07 5.78,0.08 -5.13,-0.72 -7.63,-1.53 -8.3,-2.17 0,-0.01 -0.03,-0.04 -0.04,-0.04 0,-0.01 -0.03,-0.03 -0.03,-0.04 -0.01,0 -0.04,-0.04 -0.04,-0.04 l -0.04,-0.08 v -0.03 c -0.01,-0.02 -0.03,-0.07 -0.04,-0.08 v -0.08 c 0.01,0 0.03,-0.03 0.04,-0.03 v -0.04 l 0.04,-0.08 c 0.01,0 0.03,-0.03 0.04,-0.04 l 0.03,-0.03 c 0.04,-0.04 0.11,-0.08 0.16,-0.12 1.06,-0.68 4.71,-1.08 9.02,-0.68 -0.99,-0.23 -2.95,-0.69 -3.92,-0.92 -1.79,-0.41 -3.37,-1.1 -3.96,-1.6 -0.01,0 -0.03,-0.03 -0.04,-0.03 l -0.04,-0.04 c 0,-0.01 -0.03,-0.03 -0.04,-0.04 0,-0.01 -0.03,-0.07 -0.03,-0.08 -0.01,0 -0.04,-0.03 -0.04,-0.03 -0.01,-0.02 -0.04,-0.07 -0.04,-0.08 0,-2.02 5.02,-5.31 8.49,-5.56 0.13,-0.01 0.26,-0.03 0.38,-0.04 z m 546.22,0.12 c -0.02,0.16 -0.05,0.33 -0.08,0.49 l 22.73,0.08 c -0.02,-0.17 -0.01,-0.33 -0.03,-0.5 z m -0.23,1.71 c -0.02,0.18 -0.06,0.35 -0.07,0.53 l 23.18,0.08 c -0.02,-0.18 -0.02,-0.35 -0.04,-0.53 z m -0.15,1.75 c -0.01,0.16 -0.03,0.33 -0.04,0.5 l 23.49,0.07 c -0.01,-0.16 -0.02,-0.33 -0.04,-0.49 z M 123.2,163.41 c 2.11,0 4.22,0.09 5.9,0.27 0.84,0.08 1.58,0.21 2.13,0.34 0.52,0.12 0.91,0.29 0.99,0.34 0.02,0.06 0.11,0.28 0.16,0.61 0.06,0.44 0.07,5.14 0.03,5.88 -0.07,1.48 -0.33,3.44 -0.8,5.48 -0.92,4.07 -7.01,13.65 -7.65,13.82 -6.25,1.65 -18.31,2.05 -20.04,0.32 1.35,-1.5 5.93,-6.26 7.27,-8.16 h 0.04 c 0.92,0.23 1.54,0.57 3.39,0.69 2.05,0.12 2.17,-0.01 9.53,-0.73 l 0.15,-0.04 0.12,-0.07 c 2.79,-2.01 4.59,-4.97 3.92,-7.65 0,0 -2.09,-0.35 -3.05,-0.46 -1.84,-0.21 -1.95,-0.4 -9.22,-0.04 1.75,-1.7 2.93,-9.88 2.66,-9.99 -0.49,-0.21 1.2,-0.26 2.02,-0.34 1.23,-0.14 1.92,-0.27 2.45,-0.27 z m 535.96,5.38 v 0.54 l 23.68,0.07 c -0.01,-0.18 -0.02,-0.35 -0.03,-0.53 z m 0,1.76 c 0.01,0.17 0.03,0.35 0.04,0.53 l 23.84,0.08 c -0.02,-0.18 -0.06,-0.36 -0.08,-0.54 z m 0.12,1.75 c 0.02,0.27 0.05,0.53 0.07,0.8 7.66,0.12 16.28,0.32 23.88,-0.04 -0.03,-0.24 -0.06,-0.45 -0.08,-0.69 z m -537.73,2.74 c 0.99,-0.02 2.68,0.12 3.59,0.23 0.91,0.1 1.38,0.19 1.79,0.23 h 0.04 c 0.01,-0.01 0.03,-0.04 0.04,-0.04 0,-0.01 0.03,0 0.04,0 0,0 0.03,-0.04 0.03,-0.04 h 0.04 c 0.11,1.83 -1.11,4.01 -3.31,5.63 -0.15,0.06 -2.36,-0.03 -2.87,0.42 -0.02,0.02 -0.06,0.03 -0.08,0.04 0,0.01 -0.03,0.04 -0.03,0.04 h -0.04 c -0.01,0 -0.03,-0.04 -0.04,-0.04 -0.01,-0.01 -0.03,-0.02 -0.04,-0.04 l -0.04,-0.04 c -0.01,-0.01 -0.03,-0.06 -0.03,-0.07 -0.01,-0.02 -0.04,-0.06 -0.04,-0.08 -0.01,-0.02 0,-0.06 0,-0.07 -0.01,-0.04 0,-0.11 0,-0.16 0.04,-0.89 1.22,-2.49 1.33,-3.12 v -0.15 c 0,-0.01 -0.03,-0.03 -0.04,-0.04 v -0.04 c 0,0 -0.03,0.01 -0.04,0 l -0.03,-0.03 c -0.01,-0.01 -0.04,0 -0.04,0 -0.01,-0.01 -0.03,0 -0.04,0 h -0.04 c -0.01,0 -0.03,-0.01 -0.04,0 -0.03,0 -0.08,0.03 -0.11,0.03 -0.05,0.02 -0.14,0.05 -0.19,0.08 -0.12,0.06 -0.26,0.16 -0.38,0.27 -0.96,0.84 -2.04,2.85 -2.59,3.35 -0.02,0.01 -0.06,0.02 -0.08,0.03 0,0.01 -0.03,0.04 -0.04,0.04 0,0.01 -0.03,0 -0.03,0 -0.01,0 -0.04,0.04 -0.04,0.04 h -0.04 v -0.04 c -0.03,-0.01 -0.09,-0.02 -0.11,-0.04 -0.02,-0.01 -0.07,-0.02 -0.08,-0.03 l -0.04,-0.04 -0.04,-0.08 c 0,-0.01 -0.03,-0.06 -0.03,-0.07 -0.01,-0.02 -0.04,-0.06 -0.04,-0.08 -0.01,-0.04 0,-0.11 0,-0.15 0.07,-0.89 1.52,-2.57 1.75,-3.24 0.01,-0.03 0.03,-0.09 0.04,-0.11 v -0.08 c -0.01,-0.01 -0.04,-0.03 -0.04,-0.04 -0.01,0 -0.03,-0.03 -0.04,-0.03 0,-0.01 -0.03,0 -0.04,0 0,-0.01 -0.03,0 -0.04,0 0,0 -0.03,-0.01 -0.03,0 -1.59,0.08 -2.67,3.08 -3.51,4.03 -0.03,0.03 -0.08,0.09 -0.11,0.11 -0.03,0.03 -0.08,0.06 -0.11,0.08 -0.01,0.01 -0.03,0.04 -0.04,0.04 -0.03,0.01 -0.09,0.03 -0.12,0.04 h -0.07 c -0.15,-0.01 -0.3,-0.02 -0.42,-0.04 -0.06,-0.01 -0.15,-0.02 -0.19,-0.04 -0.01,0 -0.03,-0.03 -0.04,-0.04 -0.01,0 -0.03,-0.03 -0.04,-0.04 0,0 -0.03,-0.03 -0.04,-0.03 -0.01,-0.02 -0.02,-0.06 -0.03,-0.08 -0.01,-0.02 -0.04,-0.05 -0.04,-0.08 v -0.03 c -0.01,-0.05 -0.04,-0.11 -0.04,-0.16 0,-0.03 0.03,-0.11 0.04,-0.15 0.19,-0.93 1.58,-2.64 1.86,-3.42 0.02,-0.05 0.03,-0.12 0.04,-0.16 v -0.15 l -0.04,-0.04 c 0,0 -0.03,-0.03 -0.03,-0.04 -0.01,0 -0.03,-0.03 -0.04,-0.03 h -0.08 c -0.16,-0.01 -0.34,0.04 -0.49,0.11 -1.31,0.64 -2.59,3.71 -2.94,4.04 0,0 0.01,0.03 0,0.03 0,0.01 -0.03,0 -0.03,0 -0.26,-0.05 -0.77,-0.1 -0.99,-0.15 0,-0.01 -0.01,-0.03 0,-0.04 0.88,-1.31 1.72,-2.66 2.51,-4.07 0.01,-0.02 0.02,-0.05 0.04,-0.08 l 1.18,-1.82 c 2.3,-0.12 4.26,-0.2 5.9,-0.23 z m -22.768,0.8 -0.762,2.02 c 2.74,-0.08 11.24,-0.71 12.49,-0.8 -1.79,-0.17 -9.08,-1.15 -11.728,-1.22 z m 560.61,0.11 h 0.38 c 0.53,-0.01 1.06,0.01 1.6,0 7.56,-0.04 15.94,0.03 23.23,0.31 0.76,2.16 0.74,10.84 -1.53,13.02 -0.08,0.08 -0.21,0.16 -0.3,0.23 -0.05,0.03 -0.14,0.08 -0.19,0.11 -0.04,0.02 -0.12,0.06 -0.15,0.08 -6.18,1.08 -15.58,1.21 -18.74,-0.04 -3.83,-2.05 -4.68,-6.67 -5.48,-13.67 0.39,0 0.79,-0.03 1.18,-0.04 z m 1.72,0.88 c -0.46,0.01 -0.93,0.03 -1.37,0.04 0.04,0.39 0.1,0.8 0.15,1.18 l 23.79,0.03 c -0.06,-0.36 -0.13,-0.64 -0.19,-0.95 -6.39,-0.22 -13.46,-0.32 -20.1,-0.3 -0.61,0 -1.22,-0.01 -1.83,0 -0.15,0 -0.3,-0.01 -0.45,0 z m -563.85,1.79 -0.723,2.02 c 2.694,-0.07 10.764,-0.68 12.564,-0.8 -2.11,-0.22 -9.217,-1.15 -11.841,-1.22 z m 562.82,0.64 c 0.02,0.18 0.05,0.33 0.07,0.5 l 23.65,0.04 c 0,-0.17 -0.04,-0.34 -0.04,-0.5 z m 0.23,1.72 c 0.02,0.14 0.07,0.28 0.11,0.42 v 0.03 c 0.01,0.03 0.03,0.06 0.04,0.08 l 23.3,0.04 c 0.01,-0.18 -0.01,-0.35 0,-0.53 z m -564.65,0.76 -0.647,2.02 c 1.544,-0.05 5.177,-0.32 7.957,-0.54 0.35,-0.02 0.71,-0.01 1.03,-0.03 1.85,-0.09 3.32,-0.18 3.54,-0.19 0,-0.01 -0.03,-0.03 -0.04,-0.04 -0.64,-0.21 -4.11,-0.51 -7.12,-0.76 -0.09,-0.01 -0.18,-0.03 -0.27,-0.04 -0.143,-0.02 -0.307,-0.02 -0.452,-0.04 -0.12,-0.01 -0.225,-0.02 -0.343,-0.04 h -0.152 c -1.405,-0.16 -2.7,-0.32 -3.503,-0.34 z m 565.07,0.99 c 0.04,0.16 0.07,0.34 0.11,0.49 l 22.77,0.04 0.03,-0.3 v -0.04 c 0.01,-0.03 0.03,-0.09 0.04,-0.11 v -0.04 z m -565.53,1.71 -0.609,2.02 c 2.214,-0.07 8.866,-0.67 10.316,-0.8 -1.73,-0.21 -7.556,-1.15 -9.707,-1.22 z m 566.02,0 c 0.07,0.18 0.15,0.37 0.23,0.54 l 21.93,0.03 c 0.03,-0.16 0.05,-0.35 0.07,-0.53 z m 0.91,1.75 c 0.05,0.06 0.11,0.14 0.16,0.19 0.09,0.12 0.21,0.24 0.3,0.35 l 20.29,0.03 c 0.01,-0.02 0.03,-0.08 0.04,-0.11 0.05,-0.13 0.07,-0.27 0.12,-0.42 z m 2.02,1.75 c 0.02,0.02 0.02,0.07 0.04,0.08 0.02,0.02 0.05,0.03 0.08,0.04 1.2,0.45 4.25,0.81 7.65,0.8 3.38,-0.01 7.13,-0.33 10.09,-0.84 h 0.04 c 0,0 0.03,-0.03 0.03,-0.04 z m -169.81,62.33 c -0.28,-1.68 -0.19,-4.11 -0.06,-4.4 v -0.04 c 0.03,-0.06 0.1,-0.14 0.15,-0.19 0.03,-0.03 0.08,-0.09 0.12,-0.12 0.76,-0.65 -1.6,-0.91 1.91,-0.91 3.4,0 5.04,0.02 5.71,0.53 0.02,0.02 0.06,0.07 0.08,0.08 0,0.01 0.03,0.03 0.03,0.04 0.06,0.07 0.12,0.18 0.16,0.26 v 0.04 c 0,0.02 0.03,0.07 0.03,0.08 0.13,0.53 0.16,2.62 -0.12,3.79 -0.46,1.85 -1.21,3.76 -1.72,4.38 -0.02,0.02 -0.06,0.06 -0.07,0.08 -3.25,0.5 -246.67,1.04 -248.92,0.87 -0.09,-0.31 -0.34,-2.94 -0.33,-2.94 0.6,0.04 241.02,-1.55 243.03,-1.55 z"
           style="fill:#000000"
           sodipodi:nodetypes="ccssssssscssssccccssccssccsssssssssssssssssssssssssssssssssccsssccccccsssssssssssssssssssssssssssssssssssssssssssssssssssssssccsssccccsscccccssscccsscccccsssssscccssssssssssssssssssssssssssscssssscccccccssccsssssssccccssssccssscscccssssccccccsssccsscccccssscccssssssccccsccssssscscccccccssccssssscccsssssssssssssssssssssssssssccccsssssssccsssssssssssssscccscssccscccccssssssssscsssccsscscccccccssssssccccccccccccccccccccccscccccsssssssssccccsssssssssssscssssssssssssssscssssssssscccccccccccccccccsssssssccssccccscsssccccccccccccccccssssssscsssssssssssssssssssssssssssssssssssssssssssssssssssssssssssssssssssssssssssssssssssssccccccccsscssscccccccccsscccccccccccssccccccscsssssssssccccsssccccccccccccsccscccssssscccsssssssssssssccsc"
           inkscape:connector-curvature="0"
           id="path17487" />
        <path
           d="m 186.49,218.29 c -17.94,0.57 -32.36,15.36 -32.36,33.43 0,18.43 14.99,33.39 33.43,33.39 18.43,0 33.42,-14.96 33.42,-33.39 0,-18.43 -14.99,-33.43 -33.42,-33.43 -0.36,0 -0.71,-0.01 -1.07,0 z m 0.46,3.01 h 0.61 c 16.78,0 30.34,13.63 30.34,30.42 0,16.79 -13.56,30.34 -30.34,30.34 -16.79,0 -30.42,-13.55 -30.42,-30.34 0,-16.59 13.29,-30.11 29.81,-30.42 z m -1.03,0.91 c -0.02,0.02 -0.07,0.08 -0.08,0.08 -1.36,0.08 -2.69,0.28 -3.99,0.53 v 12.72 c 1.43,-0.51 2.98,-0.85 4.56,-0.95 v -12.3 h -0.15 c -0.01,0 -0.03,-0.04 -0.04,-0.04 -0.04,-0.01 -0.11,-0.02 -0.15,-0.04 z m 2.78,0.08 v 12.3 c 1.58,0.1 3.13,0.44 4.57,0.95 v -12.72 c -1.49,-0.29 -3.02,-0.47 -4.57,-0.53 z m 18.62,7.58 -10.25,7.61 c 1.31,0.89 2.49,1.96 3.51,3.16 l 9.9,-7.39 c -0.97,-1.19 -2.03,-2.36 -3.16,-3.38 z m -41.96,2.51 c -1.02,1.16 -1.99,2.38 -2.82,3.69 l 10.74,6.17 c 0.86,-1.29 1.87,-2.49 3.05,-3.5 z m 46.52,2.66 -9.93,7.43 c 0.83,1.29 1.48,2.73 1.94,4.22 l 10.28,-7.61 c -0.67,-1.39 -1.42,-2.77 -2.29,-4.04 z m -26.11,0.69 c -4.75,0.55 -8.88,3.27 -11.42,7.04 l 5.48,3.12 c 1.46,-1.96 3.58,-3.49 6.09,-3.92 h 0.34 c 0.05,0.01 0.15,0 0.19,0 v -6.24 z m 2.97,0.08 v 6.24 c 2.3,0.29 4.36,1.38 5.86,3.01 l 5.06,-3.81 c -2.68,-3.09 -6.6,-5.11 -10.92,-5.44 z m -27.3,2.2 c -0.7,1.32 -1.3,2.73 -1.79,4.15 l 11,6.4 c 0.28,-1.54 0.82,-3.01 1.49,-4.38 z m 39.63,5.11 -5.14,3.76 c 0.82,1.43 1.3,3.08 1.3,4.84 0,1.34 -0.31,2.61 -0.8,3.77 l 5.52,3.08 c 1.01,-2.09 1.6,-4.41 1.6,-6.89 0,-3.14 -0.91,-6.09 -2.48,-8.56 z m -27.87,1.63 c -1.03,2.12 -1.67,4.42 -1.67,6.93 0,3.16 0.97,6.13 2.55,8.61 h 0.07 l 4.99,-3.74 c -0.81,-1.41 -1.29,-3.07 -1.29,-4.83 0,-1.36 0.3,-2.63 0.8,-3.81 v -0.07 z m 12.68,0.8 c -2.61,0.75 -4.53,3.33 -4.53,6.17 0,3.41 2.8,6.13 6.21,6.13 3.41,0 6.16,-2.72 6.16,-6.13 0,-3.41 -2.75,-6.17 -6.16,-6.17 -0.24,0 -0.53,-0.01 -0.77,0 h -0.87 c -0.02,0.01 -0.02,0 -0.04,0 z m 1.18,1.79 4.3,2.36 v 3.77 l -3.61,2.55 -4.04,-2.32 v -3.77 z m 17.29,7.54 c -0.3,1.56 -0.8,3.07 -1.49,4.45 l 10.85,6.17 c 0.72,-1.36 1.29,-2.74 1.79,-4.22 z m -33.16,1.9 -10.36,7.66 c 0.68,1.42 1.47,2.74 2.36,4.03 l 10.01,-7.46 c -0.84,-1.3 -1.54,-2.71 -2.01,-4.23 z m 24.17,0.73 c -1.54,2.07 -3.94,3.5 -6.62,3.84 v 6.25 c 5,-0.39 9.41,-3.08 12.07,-7.01 z m -14.81,0.87 -5.06,3.77 c 2.7,3.1 6.6,5.15 10.96,5.45 v -6.25 c -2.32,-0.26 -4.37,-1.36 -5.9,-2.97 z m 20.37,1.94 v 0.08 l 0.08,-0.08 z m 0.8,0.96 c -0.89,1.31 -1.96,2.48 -3.16,3.5 l 11.19,6.47 c 1.02,-1.15 1.92,-2.43 2.74,-3.73 z m -27.15,1.56 -10.01,7.46 c 0.97,1.19 2.02,2.24 3.16,3.27 L 178,265.92 c -1.28,-0.86 -2.42,-1.91 -3.43,-3.08 z m 7.28,5.02 v 12.87 c 1.48,0.29 3.01,0.47 4.56,0.53 v -12.45 c -1.58,-0.1 -3.13,-0.44 -4.56,-0.95 z m 11.42,0 c -1.44,0.51 -2.99,0.85 -4.57,0.95 v 12.45 c 1.55,-0.06 3.08,-0.24 4.57,-0.53 z"
           inkscape:connector-curvature="0"
           style="fill:#ffffff"
           id="path17489" />
        <path
           d="m 559.83,218.29 c -17.94,0.57 -32.36,15.36 -32.36,33.43 0,18.43 14.99,33.39 33.43,33.39 18.43,0 33.42,-14.96 33.42,-33.39 0,-18.43 -14.99,-33.43 -33.42,-33.43 -0.36,0 -0.71,-0.01 -1.07,0 z m 0.46,3.01 h 0.61 c 16.78,0 30.34,13.63 30.34,30.42 0,16.79 -13.56,30.34 -30.34,30.34 -16.79,0 -30.42,-13.55 -30.42,-30.34 0,-16.59 13.29,-30.11 29.81,-30.42 z m -1.03,0.91 -0.08,0.08 c -1.36,0.08 -2.69,0.28 -4,0.53 v 12.72 c 1.44,-0.51 2.99,-0.85 4.57,-0.95 v -12.3 h -0.15 c -0.01,0 -0.03,-0.04 -0.04,-0.04 -0.04,-0.01 -0.11,-0.02 -0.15,-0.04 z m 2.78,0.08 v 12.3 c 1.58,0.1 3.13,0.44 4.57,0.95 v -12.72 c -1.49,-0.29 -3.02,-0.47 -4.57,-0.53 z m 18.62,7.58 -10.25,7.61 c 1.31,0.89 2.49,1.96 3.51,3.16 l 9.9,-7.39 c -0.97,-1.19 -2.03,-2.36 -3.16,-3.38 z m -41.96,2.51 c -1.02,1.16 -1.99,2.38 -2.82,3.69 l 10.74,6.17 c 0.86,-1.29 1.87,-2.49 3.04,-3.5 z m 46.52,2.66 -9.93,7.43 c 0.82,1.29 1.48,2.73 1.94,4.22 l 10.28,-7.61 c -0.67,-1.39 -1.42,-2.77 -2.29,-4.04 z m -26.11,0.69 c -4.75,0.55 -8.88,3.27 -11.43,7.04 l 5.49,3.12 c 1.46,-1.96 3.58,-3.49 6.09,-3.92 h 0.34 c 0.05,0.01 0.15,0 0.19,0 v -6.24 z m 2.97,0.08 v 6.24 c 2.3,0.29 4.36,1.38 5.86,3.01 l 5.06,-3.81 c -2.68,-3.09 -6.6,-5.11 -10.92,-5.44 z m -27.3,2.2 c -0.7,1.32 -1.3,2.73 -1.79,4.15 l 11,6.4 c 0.28,-1.54 0.82,-3.01 1.49,-4.38 z m 39.63,5.11 -5.14,3.76 c 0.82,1.43 1.3,3.08 1.3,4.84 0,1.34 -0.31,2.61 -0.8,3.77 l 5.52,3.08 c 1.01,-2.09 1.6,-4.41 1.6,-6.89 0,-3.14 -0.91,-6.09 -2.48,-8.56 z m -27.87,1.63 c -1.03,2.12 -1.67,4.42 -1.67,6.93 0,3.16 0.97,6.13 2.55,8.61 h 0.07 l 4.99,-3.74 c -0.81,-1.41 -1.29,-3.07 -1.29,-4.83 0,-1.36 0.3,-2.63 0.8,-3.81 v -0.07 z m 12.68,0.8 c -2.61,0.75 -4.53,3.33 -4.53,6.17 0,3.41 2.79,6.13 6.21,6.13 3.41,0 6.16,-2.72 6.16,-6.13 0,-3.41 -2.75,-6.17 -6.16,-6.17 -0.24,0 -0.54,-0.01 -0.77,0 h -0.87 c -0.02,0.01 -0.02,0 -0.04,0 z m 1.18,1.79 4.3,2.36 v 3.77 l -3.61,2.55 -4.04,-2.32 v -3.77 z m 17.29,7.54 c -0.3,1.56 -0.8,3.07 -1.49,4.45 l 10.85,6.17 c 0.72,-1.36 1.29,-2.74 1.79,-4.22 z m -33.17,1.9 -10.35,7.66 c 0.68,1.42 1.47,2.74 2.36,4.03 l 10.01,-7.46 c -0.85,-1.3 -1.54,-2.71 -2.02,-4.23 z m 24.18,0.73 c -1.54,2.07 -3.94,3.5 -6.62,3.84 v 6.25 c 5,-0.39 9.41,-3.08 12.06,-7.01 z m -14.81,0.87 -5.06,3.77 c 2.7,3.1 6.6,5.15 10.96,5.45 v -6.25 c -2.32,-0.26 -4.37,-1.36 -5.9,-2.97 z m 20.37,1.94 v 0.08 l 0.08,-0.08 z m 0.8,0.96 c -0.89,1.31 -1.96,2.48 -3.16,3.5 l 11.19,6.47 c 1.02,-1.15 1.92,-2.43 2.74,-3.73 z m -27.15,1.56 -10.01,7.46 c 0.96,1.19 2.02,2.24 3.16,3.27 l 10.28,-7.65 c -1.28,-0.86 -2.42,-1.91 -3.43,-3.08 z m 7.27,5.02 v 12.87 c 1.49,0.29 3.02,0.47 4.57,0.53 v -12.45 c -1.58,-0.1 -3.13,-0.44 -4.57,-0.95 z m 11.43,0 c -1.44,0.51 -2.99,0.85 -4.57,0.95 v 12.45 c 1.55,-0.06 3.08,-0.24 4.57,-0.53 z"
           inkscape:connector-curvature="0"
           style="fill:#ffffff"
           id="path17491" />
        <path
           d="M 120.19,238.48 C 121.27,150.54 256.76,145.41 258.48,249"
           style="fill:none;stroke:#000000;stroke-width:0.89371px"
           sodipodi:nodetypes="cc"
           inkscape:connector-curvature="0"
           id="path17493" />
        <path
           d="m 493.48,243.84 c 0.51,-92.86 133.27,-91.96 133.57,1.12"
           style="fill:none;stroke:#000000;stroke-width:0.86048px"
           sodipodi:nodetypes="cc"
           inkscape:connector-curvature="0"
           id="path17495" />
        <path
           d="m 372.36,159.23 c -1.68,0.1 -2.99,1.49 -2.99,3.2 v 0.65 c 0,1.77 1.43,3.2 3.2,3.2 h 26.84 c 1.77,0 3.2,-1.43 3.2,-3.2 v -0.65 c 0,-1.77 -1.43,-3.2 -3.2,-3.2 z m 0.9,0.97 h 18.94 c -0.14,0.28 -0.21,0.68 -0.21,1.1 v 3.14 c 0,0.32 0.04,0.61 0.12,0.86 h -18.65 c -1.77,0 -3.2,-1.07 -3.2,-2.4 v -0.3 c 0,-1.28 1.32,-2.32 3,-2.4 z m 20.1,0 h 5.15 c 1.77,0 3.2,1.07 3.2,2.4 v 0.3 c 0,1.33 -1.43,2.4 -3.2,2.4 h -5.06 c 0.08,-0.25 0.12,-0.54 0.12,-0.86 v -3.14 c 0,-0.42 -0.08,-0.82 -0.21,-1.1 z"
           inkscape:connector-curvature="0"
           style="fill:#000000"
           id="path17497" />
        <path
           d="m 504.85,159.23 c -1.68,0.1 -3,1.49 -3,3.2 v 0.65 c 0,1.77 1.43,3.2 3.21,3.2 h 26.83 c 1.78,0 3.2,-1.43 3.2,-3.2 v -0.65 c 0,-1.77 -1.42,-3.2 -3.2,-3.2 z m 0.9,0.97 h 18.93 c -0.13,0.28 -0.21,0.68 -0.21,1.1 v 3.14 c 0,0.32 0.04,0.61 0.12,0.86 h -18.64 c -1.78,0 -3.21,-1.07 -3.21,-2.4 v -0.3 c 0,-1.28 1.33,-2.32 3.01,-2.4 z m 20.09,0 h 5.15 c 1.78,0 3.2,1.07 3.2,2.4 v 0.3 c 0,1.33 -1.42,2.4 -3.2,2.4 h -5.06 c 0.08,-0.25 0.12,-0.54 0.12,-0.86 v -3.14 c 0,-0.42 -0.08,-0.82 -0.21,-1.1 z"
           inkscape:connector-curvature="0"
           style="fill:#000000"
           id="path17499" />
        <rect
           x="627.57001"
           y="216.21001"
           width="30.867001"
           height="1.4698"
           style="fill:#000000"
           id="rect17501" />
        <rect
           x="627.57001"
           y="216.21001"
           width="30.867001"
           height="1.4698"
           style="fill:#000000"
           id="rect17503" />
        <rect
           x="627.57001"
           y="216.21001"
           width="30.867001"
           height="1.4698"
           style="fill:#000000"
           id="rect17505" />
        <rect
           x="267.97"
           y="216.21001"
           width="230.12"
           height="1.4698"
           style="fill:#000000"
           id="rect17507" />
      </g>
    </g>
  </g>
</svg>
