<?xml version="1.0" encoding="UTF-8" standalone="no"?>
<svg
   xmlns:dc="http://purl.org/dc/elements/1.1/"
   xmlns:cc="http://creativecommons.org/ns#"
   xmlns:rdf="http://www.w3.org/1999/02/22-rdf-syntax-ns#"
   xmlns:svg="http://www.w3.org/2000/svg"
   xmlns="http://www.w3.org/2000/svg"
   xmlns:sodipodi="http://sodipodi.sourceforge.net/DTD/sodipodi-0.dtd"
   xmlns:inkscape="http://www.inkscape.org/namespaces/inkscape"
   width="337.92844"
   height="600"
   id="svg2599"
   sodipodi:version="0.32"
   inkscape:version="1.0beta2 (2b71d25, 2019-12-03)"
   version="1.0"
   sodipodi:docname="Logo_TGV.svg"
   inkscape:output_extension="org.inkscape.output.svg.inkscape">
  <defs
     id="defs2601" />
  <sodipodi:namedview
     id="base"
     pagecolor="#ffffff"
     bordercolor="#666666"
     borderopacity="1.0"
     inkscape:pageopacity="0.0"
     inkscape:pageshadow="2"
     inkscape:zoom="0.7"
     inkscape:cx="269.71346"
     inkscape:cy="200.81702"
     inkscape:document-units="px"
     inkscape:current-layer="layer1"
     inkscape:window-width="1024"
     inkscape:window-height="712"
     inkscape:window-x="788"
     inkscape:window-y="419"
     inkscape:document-rotation="0"
     showgrid="false"
     inkscape:window-maximized="0" />
  <metadata
     id="metadata2604">
    <rdf:RDF>
      <cc:Work
         rdf:about="">
        <dc:format>image/svg+xml</dc:format>
        <dc:type
           rdf:resource="http://purl.org/dc/dcmitype/StillImage" />
        <dc:title></dc:title>
      </cc:Work>
    </rdf:RDF>
  </metadata>
  <g
     inkscape:label="Calque 1"
     inkscape:groupmode="layer"
     id="layer1"
     transform="translate(-78.617145,-176.17369)">
    <g
       id="g6622"
       transform="rotate(-89.335684,381.55663,475.16501)">
      <rect
         ry="0"
         rx="0"
         y="177.67369"
         x="80.117142"
         height="334.92767"
         width="596.71106"
         id="rect13067"
         style="fill:#ffffff;fill-opacity:1;fill-rule:nonzero;stroke:#000000;stroke-width:3;stroke-linecap:butt;stroke-linejoin:miter;stroke-miterlimit:4;stroke-dasharray:none;stroke-dashoffset:0;stroke-opacity:1" />
      <path
         style="fill:none;fill-rule:evenodd;stroke:#000000;stroke-width:3;stroke-linecap:butt;stroke-linejoin:miter;stroke-miterlimit:4;stroke-dasharray:none;stroke-opacity:1"
         d="m 507.84339,290.49623 c -8.97577,-2.08169 -149.17291,0 -149.17291,0 -28.65386,-28.43507 -42.49109,-54.60661 -64.45615,-66.2478 -31.62285,-16.75954 -63.62298,-18.13346 -71.25312,-16.44498 53.06811,-3.38061 42.77252,-2.33985 113.0032,0 70.22944,2.34102 116.96143,32.76453 116.96143,32.76453 0,0 53.06931,48.88733 55.18176,50.18757 107.19426,53.56702 150.22975,115.58623 153.00212,122.34763 2.77236,6.76122 -28.38228,8.97082 -28.38228,8.97082 -62.04633,11.03412 -101.77859,-3.96312 -112.01272,-12.40934 -54.01188,-31.61543 -95.24583,-60.09232 -126.40416,-79.12154 -83.83565,-51.19896 -90.56992,-35.71262 -93.1469,-40.02847 0,0 0,0 -12.69682,-47.80724 -12.69436,-47.80723 -77.66297,-33.09751 -77.66297,-33.09751 0,0 -97.8277,16.182 -130.685584,19.85877 l 0.269109,71.68804 221.253085,-9.88135"
         id="path12974"
         sodipodi:nodetypes="ccscscssccscsc"
         inkscape:connector-curvature="0" />
      <path
         style="fill:none;fill-rule:evenodd;stroke:#000000;stroke-width:3;stroke-linecap:butt;stroke-linejoin:miter;stroke-miterlimit:4;stroke-dasharray:none;stroke-opacity:1"
         d="m 358.6373,290.46305 c -2.11245,0 -56.5016,0.78028 -56.5016,0.78028"
         id="path12976"
         inkscape:connector-curvature="0" />
      <path
         style="fill:none;fill-rule:evenodd;stroke:#000000;stroke-width:3;stroke-linecap:butt;stroke-linejoin:miter;stroke-miterlimit:4;stroke-dasharray:none;stroke-opacity:1"
         d="m 80.387395,301.15671 v 56.16868 l 219.140625,20.80248 c 0,0 117.22686,19.76287 210.69204,44.20662 0,0 67.06261,4.15973 80.26328,3.64125 13.20067,-0.52112 13.20067,-0.52112 13.20067,-0.52112"
         id="path12978"
         inkscape:connector-curvature="0" />
      <path
         style="fill:none;fill-rule:evenodd;stroke:#000000;stroke-width:3;stroke-linecap:butt;stroke-linejoin:miter;stroke-miterlimit:4;stroke-dasharray:none;stroke-opacity:1"
         d="m 439.46096,405.69174 4.75208,-43.6855 c 0,0 74.4556,-60.32956 160.52781,-9.36171"
         id="path12980"
         sodipodi:nodetypes="ccs"
         inkscape:connector-curvature="0" />
      <path
         style="fill:none;fill-rule:evenodd;stroke:#000000;stroke-width:3;stroke-linecap:butt;stroke-linejoin:miter;stroke-miterlimit:4;stroke-dasharray:none;stroke-opacity:1"
         d="m 80.387395,356.80558 v 41.60497 l 248.711235,52.00762 c 0,0 266.66521,44.72642 323.16682,8.32195 l 9.5054,-44.72758"
         id="path12982"
         inkscape:connector-curvature="0" />
      <path
         style="fill:#000000;fill-opacity:1;fill-rule:nonzero;stroke:#000000;stroke-width:3;stroke-linecap:butt;stroke-linejoin:miter;stroke-miterlimit:4;stroke-dasharray:none;stroke-dashoffset:0;stroke-opacity:1"
         d="m 332.74474,245.95297 h 70.04388 l 35.05513,35.34994 h -74.52439 z"
         id="path12984"
         sodipodi:nodetypes="ccccc"
         inkscape:connector-curvature="0" />
      <path
         sodipodi:nodetypes="ccccc"
         id="path12986"
         d="m 426.8391,246.6878 30.59674,2.57444 32.68214,30.5697 -30.12485,-0.36733 z"
         style="fill:#000000;fill-opacity:1;fill-rule:nonzero;stroke:#000000;stroke-width:3;stroke-linecap:butt;stroke-linejoin:miter;stroke-miterlimit:4;stroke-dasharray:none;stroke-dashoffset:0;stroke-opacity:1"
         inkscape:connector-curvature="0" />
      <path
         style="fill:#000000;fill-opacity:1;fill-rule:nonzero;stroke:#000000;stroke-width:3;stroke-linecap:butt;stroke-linejoin:miter;stroke-miterlimit:4;stroke-dasharray:none;stroke-dashoffset:0;stroke-opacity:1"
         d="m 301.5397,247.79128 6.46884,-0.12908 31.10181,35.6144 -25.90118,0.33298 z"
         id="path12988"
         sodipodi:nodetypes="ccccc"
         inkscape:connector-curvature="0" />
      <rect
         style="fill:#000000;fill-opacity:1;fill-rule:nonzero;stroke:#000000;stroke-width:3.6865;stroke-linecap:butt;stroke-linejoin:miter;stroke-miterlimit:4;stroke-dasharray:none;stroke-dashoffset:0;stroke-opacity:1"
         id="rect12990"
         width="87.183273"
         height="36.650414"
         x="53.907555"
         y="551.38544"
         transform="matrix(1,0,0.749292,0.6622397,0,0)"
         ry="55.494476"
         rx="30.757711" />
      <path
         style="fill:#000000;fill-opacity:1;fill-rule:nonzero;stroke:#000000;stroke-width:3;stroke-linecap:butt;stroke-linejoin:miter;stroke-miterlimit:4;stroke-dasharray:none;stroke-dashoffset:0;stroke-opacity:1"
         d="m 595.76262,359.36892 -2.85961,0.36749 c -5.93674,0 -8.05656,2.4812 -4.75333,5.56319 l 13.58164,12.67347 c 3.30322,3.08197 10.74042,5.56318 16.67716,5.56318 l 3.98036,-0.73615 c 5.93673,0 8.05654,-2.47987 4.75332,-5.56317 L 612.44102,364.9321 c -3.30324,-3.08198 -10.74166,-5.56318 -16.6784,-5.56318 z"
         id="path12992"
         sodipodi:nodetypes="ccccccccc"
         inkscape:connector-curvature="0" />
      <path
         style="fill:#000000;fill-opacity:1;fill-rule:nonzero;stroke:#000000;stroke-width:3;stroke-linecap:butt;stroke-linejoin:miter;stroke-miterlimit:4;stroke-dasharray:none;stroke-dashoffset:0;stroke-opacity:1"
         d="m 80.79662,310.35501 h 163.1699 L 349.63574,362.57515 243.96652,351.5422 80.79662,342.34888 Z"
         id="path12994"
         sodipodi:nodetypes="cccccc"
         inkscape:connector-curvature="0" />
      <path
         sodipodi:nodetypes="cssccc"
         id="path14038"
         d="m 80.142863,412.74796 c 0,0 195.963867,49.06816 344.859057,74.85379 54.41741,9.42311 230.55692,4.11178 252.11523,-7.65234 0,0 -0.81475,32.65272 -0.81475,32.65272 H 80.671276 Z"
         style="fill:#000000;fill-rule:evenodd;stroke:#000000;stroke-width:3;stroke-linecap:butt;stroke-linejoin:miter;stroke-miterlimit:4;stroke-dasharray:none;stroke-opacity:1"
         inkscape:connector-curvature="0" />
      <path
         sodipodi:nodetypes="ccccccc"
         id="path19979"
         d="M 80.79662,366.20132 297.51415,390.69864 401.85852,410.65615 508.3597,462.05454 342.13325,442.27938 80.518779,388.50381 Z"
         style="fill:#000000;fill-opacity:1;fill-rule:nonzero;stroke:#000000;stroke-width:3;stroke-linecap:butt;stroke-linejoin:miter;stroke-miterlimit:4;stroke-dasharray:none;stroke-dashoffset:0;stroke-opacity:1"
         inkscape:connector-curvature="0" />
    </g>
  </g>
</svg>
